<mxfile modified="2023-09-27T14:49:50.038Z" host="app.diagrams.net" agent="Mozilla/5.0 (Macintosh; Intel Mac OS X 10_15_7) AppleWebKit/537.36 (KHTML, like Gecko) Chrome/116.0.0.0 Safari/537.36" etag="YQlEe9xVG3dmMFJ3A7-U" version="21.7.5" type="device">
  <diagram id="Ht1M8jgEwFfnCIfOTk4-" name="Page-1">
    <mxGraphModel dx="2880" dy="1124" grid="1" gridSize="10" guides="1" tooltips="1" connect="1" arrows="1" fold="1" page="1" pageScale="1" pageWidth="1169" pageHeight="827" math="0" shadow="0">
      <root>
        <mxCell id="0" />
        <mxCell id="1" parent="0" />
        <mxCell id="wDiflzJva6fGDHCOHz6W-10" style="edgeStyle=orthogonalEdgeStyle;rounded=0;orthogonalLoop=1;jettySize=auto;html=1;startArrow=classic;startFill=1;" edge="1" parent="1" source="wDiflzJva6fGDHCOHz6W-2" target="wDiflzJva6fGDHCOHz6W-5">
          <mxGeometry relative="1" as="geometry" />
        </mxCell>
        <mxCell id="wDiflzJva6fGDHCOHz6W-2" value="" style="image;aspect=fixed;perimeter=ellipsePerimeter;html=1;align=center;shadow=0;dashed=0;spacingTop=3;image=img/lib/active_directory/internet_globe.svg;" vertex="1" parent="1">
          <mxGeometry x="30" y="51" width="50" height="50" as="geometry" />
        </mxCell>
        <mxCell id="wDiflzJva6fGDHCOHz6W-3" value="" style="ellipse;shape=cloud;whiteSpace=wrap;html=1;" vertex="1" parent="1">
          <mxGeometry x="-10" y="50" width="680" height="630" as="geometry" />
        </mxCell>
        <mxCell id="wDiflzJva6fGDHCOHz6W-4" value="&lt;b&gt;&lt;font style=&quot;font-size: 15px;&quot;&gt;Hetzner Network / subnets&lt;/font&gt;&lt;/b&gt;" style="text;html=1;align=center;verticalAlign=middle;resizable=0;points=[];autosize=1;strokeColor=none;fillColor=none;" vertex="1" parent="1">
          <mxGeometry x="510" y="130" width="210" height="30" as="geometry" />
        </mxCell>
        <mxCell id="wDiflzJva6fGDHCOHz6W-23" style="edgeStyle=orthogonalEdgeStyle;rounded=0;orthogonalLoop=1;jettySize=auto;html=1;exitX=0.145;exitY=0.855;exitDx=0;exitDy=0;exitPerimeter=0;" edge="1" parent="1" source="wDiflzJva6fGDHCOHz6W-5" target="wDiflzJva6fGDHCOHz6W-12">
          <mxGeometry relative="1" as="geometry" />
        </mxCell>
        <mxCell id="wDiflzJva6fGDHCOHz6W-24" style="edgeStyle=orthogonalEdgeStyle;rounded=0;orthogonalLoop=1;jettySize=auto;html=1;exitX=0.5;exitY=1;exitDx=0;exitDy=0;exitPerimeter=0;" edge="1" parent="1" source="wDiflzJva6fGDHCOHz6W-5" target="wDiflzJva6fGDHCOHz6W-11">
          <mxGeometry relative="1" as="geometry" />
        </mxCell>
        <mxCell id="wDiflzJva6fGDHCOHz6W-25" style="edgeStyle=orthogonalEdgeStyle;rounded=0;orthogonalLoop=1;jettySize=auto;html=1;exitX=0.855;exitY=0.855;exitDx=0;exitDy=0;exitPerimeter=0;entryX=0.5;entryY=0;entryDx=0;entryDy=0;entryPerimeter=0;" edge="1" parent="1" source="wDiflzJva6fGDHCOHz6W-5" target="wDiflzJva6fGDHCOHz6W-13">
          <mxGeometry relative="1" as="geometry" />
        </mxCell>
        <mxCell id="wDiflzJva6fGDHCOHz6W-26" style="edgeStyle=orthogonalEdgeStyle;rounded=0;orthogonalLoop=1;jettySize=auto;html=1;exitX=1;exitY=0.5;exitDx=0;exitDy=0;exitPerimeter=0;entryX=0.5;entryY=0;entryDx=0;entryDy=0;entryPerimeter=0;" edge="1" parent="1" source="wDiflzJva6fGDHCOHz6W-5" target="wDiflzJva6fGDHCOHz6W-14">
          <mxGeometry relative="1" as="geometry" />
        </mxCell>
        <mxCell id="wDiflzJva6fGDHCOHz6W-5" value="Load Balancer" style="outlineConnect=0;dashed=0;verticalLabelPosition=top;verticalAlign=bottom;align=center;html=1;shape=mxgraph.aws3.classic_load_balancer;fillColor=#F58536;gradientColor=none;shadow=0;labelPosition=center;" vertex="1" parent="1">
          <mxGeometry x="170" y="40" width="69" height="72" as="geometry" />
        </mxCell>
        <mxCell id="wDiflzJva6fGDHCOHz6W-11" value="php-fpm-002" style="outlineConnect=0;dashed=0;verticalLabelPosition=bottom;verticalAlign=top;align=center;html=1;shape=mxgraph.aws3.instance;fillColor=#F58534;gradientColor=none;" vertex="1" parent="1">
          <mxGeometry x="310" y="291.5" width="60" height="63" as="geometry" />
        </mxCell>
        <mxCell id="wDiflzJva6fGDHCOHz6W-12" value="php-fpm-001" style="outlineConnect=0;dashed=0;verticalLabelPosition=bottom;verticalAlign=top;align=center;html=1;shape=mxgraph.aws3.instance;fillColor=#F58534;gradientColor=none;" vertex="1" parent="1">
          <mxGeometry x="230" y="291.5" width="60" height="63" as="geometry" />
        </mxCell>
        <mxCell id="wDiflzJva6fGDHCOHz6W-13" value="php-fpm-003" style="outlineConnect=0;dashed=0;verticalLabelPosition=bottom;verticalAlign=top;align=center;html=1;shape=mxgraph.aws3.instance;fillColor=#F58534;gradientColor=none;" vertex="1" parent="1">
          <mxGeometry x="390" y="291.5" width="60" height="63" as="geometry" />
        </mxCell>
        <mxCell id="wDiflzJva6fGDHCOHz6W-14" value="php-fpm-+n" style="outlineConnect=0;dashed=0;verticalLabelPosition=bottom;verticalAlign=top;align=center;html=1;shape=mxgraph.aws3.instance;fillColor=#F58534;gradientColor=none;" vertex="1" parent="1">
          <mxGeometry x="470" y="291.5" width="60" height="63" as="geometry" />
        </mxCell>
        <mxCell id="wDiflzJva6fGDHCOHz6W-28" style="edgeStyle=orthogonalEdgeStyle;rounded=0;orthogonalLoop=1;jettySize=auto;html=1;entryX=0;entryY=0.5;entryDx=0;entryDy=0;entryPerimeter=0;startArrow=classic;startFill=1;" edge="1" parent="1" source="wDiflzJva6fGDHCOHz6W-21" target="wDiflzJva6fGDHCOHz6W-12">
          <mxGeometry relative="1" as="geometry" />
        </mxCell>
        <mxCell id="wDiflzJva6fGDHCOHz6W-21" value="" style="image;html=1;image=img/lib/clip_art/networking/Firewall-page1_128x128.png" vertex="1" parent="1">
          <mxGeometry x="100" y="291.5" width="80" height="80" as="geometry" />
        </mxCell>
        <mxCell id="wDiflzJva6fGDHCOHz6W-27" style="edgeStyle=orthogonalEdgeStyle;rounded=0;orthogonalLoop=1;jettySize=auto;html=1;exitX=1;exitY=1;exitDx=0;exitDy=0;startArrow=classic;startFill=1;" edge="1" parent="1" source="wDiflzJva6fGDHCOHz6W-2" target="wDiflzJva6fGDHCOHz6W-21">
          <mxGeometry relative="1" as="geometry" />
        </mxCell>
        <mxCell id="wDiflzJva6fGDHCOHz6W-31" style="edgeStyle=orthogonalEdgeStyle;rounded=0;orthogonalLoop=1;jettySize=auto;html=1;exitX=0;exitY=0.1;exitDx=0;exitDy=0;exitPerimeter=0;" edge="1" parent="1" source="wDiflzJva6fGDHCOHz6W-29" target="wDiflzJva6fGDHCOHz6W-12">
          <mxGeometry relative="1" as="geometry" />
        </mxCell>
        <mxCell id="wDiflzJva6fGDHCOHz6W-32" style="edgeStyle=orthogonalEdgeStyle;rounded=0;orthogonalLoop=1;jettySize=auto;html=1;exitX=0.5;exitY=0.02;exitDx=0;exitDy=0;exitPerimeter=0;entryX=0.5;entryY=1;entryDx=0;entryDy=0;entryPerimeter=0;" edge="1" parent="1" source="wDiflzJva6fGDHCOHz6W-29" target="wDiflzJva6fGDHCOHz6W-11">
          <mxGeometry relative="1" as="geometry" />
        </mxCell>
        <mxCell id="wDiflzJva6fGDHCOHz6W-33" style="edgeStyle=orthogonalEdgeStyle;rounded=0;orthogonalLoop=1;jettySize=auto;html=1;exitX=1;exitY=0.1;exitDx=0;exitDy=0;exitPerimeter=0;entryX=0.5;entryY=1;entryDx=0;entryDy=0;entryPerimeter=0;" edge="1" parent="1" source="wDiflzJva6fGDHCOHz6W-29" target="wDiflzJva6fGDHCOHz6W-13">
          <mxGeometry relative="1" as="geometry" />
        </mxCell>
        <mxCell id="wDiflzJva6fGDHCOHz6W-34" style="edgeStyle=orthogonalEdgeStyle;rounded=0;orthogonalLoop=1;jettySize=auto;html=1;exitX=1;exitY=0.5;exitDx=0;exitDy=0;exitPerimeter=0;" edge="1" parent="1" source="wDiflzJva6fGDHCOHz6W-29" target="wDiflzJva6fGDHCOHz6W-14">
          <mxGeometry relative="1" as="geometry" />
        </mxCell>
        <mxCell id="wDiflzJva6fGDHCOHz6W-29" value="MySQL" style="outlineConnect=0;dashed=0;verticalLabelPosition=bottom;verticalAlign=top;align=center;html=1;shape=mxgraph.aws3.rds_db_instance_read_replica;fillColor=#2E73B8;gradientColor=none;" vertex="1" parent="1">
          <mxGeometry x="235.25" y="400" width="49.5" height="66" as="geometry" />
        </mxCell>
        <mxCell id="wDiflzJva6fGDHCOHz6W-36" style="edgeStyle=orthogonalEdgeStyle;rounded=0;orthogonalLoop=1;jettySize=auto;html=1;exitX=0.5;exitY=0.02;exitDx=0;exitDy=0;exitPerimeter=0;entryX=0.05;entryY=0.95;entryDx=0;entryDy=0;entryPerimeter=0;" edge="1" parent="1" source="wDiflzJva6fGDHCOHz6W-30" target="wDiflzJva6fGDHCOHz6W-11">
          <mxGeometry relative="1" as="geometry" />
        </mxCell>
        <mxCell id="wDiflzJva6fGDHCOHz6W-37" style="edgeStyle=orthogonalEdgeStyle;rounded=0;orthogonalLoop=1;jettySize=auto;html=1;exitX=0;exitY=0.1;exitDx=0;exitDy=0;exitPerimeter=0;" edge="1" parent="1" source="wDiflzJva6fGDHCOHz6W-30" target="wDiflzJva6fGDHCOHz6W-12">
          <mxGeometry relative="1" as="geometry" />
        </mxCell>
        <mxCell id="wDiflzJva6fGDHCOHz6W-38" style="edgeStyle=orthogonalEdgeStyle;rounded=0;orthogonalLoop=1;jettySize=auto;html=1;exitX=1;exitY=0.1;exitDx=0;exitDy=0;exitPerimeter=0;" edge="1" parent="1" source="wDiflzJva6fGDHCOHz6W-30">
          <mxGeometry relative="1" as="geometry">
            <mxPoint x="420" y="370" as="targetPoint" />
          </mxGeometry>
        </mxCell>
        <mxCell id="wDiflzJva6fGDHCOHz6W-39" style="edgeStyle=orthogonalEdgeStyle;rounded=0;orthogonalLoop=1;jettySize=auto;html=1;exitX=1;exitY=0.5;exitDx=0;exitDy=0;exitPerimeter=0;" edge="1" parent="1" source="wDiflzJva6fGDHCOHz6W-30">
          <mxGeometry relative="1" as="geometry">
            <mxPoint x="500" y="390" as="targetPoint" />
          </mxGeometry>
        </mxCell>
        <mxCell id="wDiflzJva6fGDHCOHz6W-30" value="Redis" style="outlineConnect=0;dashed=0;verticalLabelPosition=bottom;verticalAlign=top;align=center;html=1;shape=mxgraph.aws3.rds_db_instance;fillColor=#2E73B8;gradientColor=none;" vertex="1" parent="1">
          <mxGeometry x="340.5" y="500" width="49.5" height="66" as="geometry" />
        </mxCell>
      </root>
    </mxGraphModel>
  </diagram>
</mxfile>
